<svg xmlns="http://www.w3.org/2000/svg" xmlns:xlink="http://www.w3.org/1999/xlink" width="1195pt" height="856pt" viewBox="0.00 0.00 1195.00 856.00">
<g id="graph0" class="graph" transform="scale(1 1) rotate(0) translate(4 852)">
<title>Trimurti_Online_Grocery_Store</title>
<polygon fill="white" stroke="none" points="-4,4 -4,-852 1191.47,-852 1191.47,4 -4,4"/>
<text xml:space="preserve" text-anchor="middle" x="593.74" y="-833.2" font-family="Times,serif" font-size="12.00">Trimurti Kirana Stores – Complete System Flow Diagram</text>
<!-- User -->
<g id="node1" class="node">
<title>User</title>
<polygon fill="lightyellow" stroke="black" points="457.1,-825.6 371.09,-825.6 371.09,-784 457.1,-784 457.1,-825.6"/>
<text xml:space="preserve" text-anchor="middle" x="414.1" y="-809" font-family="Helvetica,sans-Serif" font-size="14.00">User</text>
<text xml:space="preserve" text-anchor="middle" x="414.1" y="-792.2" font-family="Helvetica,sans-Serif" font-size="14.00">(Customer)</text>
</g>
<!-- Home -->
<g id="node2" class="node">
<title>Home</title>
<polygon fill="lightyellow" stroke="black" points="513.91,-747 314.28,-747 314.28,-705.4 513.91,-705.4 513.91,-747"/>
<text xml:space="preserve" text-anchor="middle" x="414.1" y="-730.4" font-family="Helvetica,sans-Serif" font-size="14.00">Home Page</text>
<text xml:space="preserve" text-anchor="middle" x="414.1" y="-713.6" font-family="Helvetica,sans-Serif" font-size="14.00">(View Categories &amp; Products)</text>
</g>
<!-- User&#45;&gt;Home -->
<g id="edge1" class="edge">
<title>User-&gt;Home</title>
<path fill="none" stroke="black" d="M414.1,-783.67C414.1,-776.08 414.1,-767.25 414.1,-758.86"/>
<polygon fill="black" stroke="black" points="417.6,-758.97 414.1,-748.97 410.6,-758.97 417.6,-758.97"/>
</g>
<!-- Login -->
<g id="node3" class="node">
<title>Login</title>
<polygon fill="lightyellow" stroke="black" points="377.12,-668.4 263.07,-668.4 263.07,-632.4 377.12,-632.4 377.12,-668.4"/>
<text xml:space="preserve" text-anchor="middle" x="320.1" y="-646.2" font-family="Helvetica,sans-Serif" font-size="14.00">Login / Register</text>
</g>
<!-- Home&#45;&gt;Login -->
<g id="edge2" class="edge">
<title>Home-&gt;Login</title>
<path fill="none" stroke="black" d="M388.41,-705.03C376.89,-695.99 363.2,-685.24 351.11,-675.75"/>
<polygon fill="black" stroke="black" points="353.46,-673.14 343.43,-669.72 349.13,-678.65 353.46,-673.14"/>
</g>
<!-- Controller -->
<g id="node18" class="node">
<title>Controller</title>
<polygon fill="lightblue" stroke="black" points="495.62,-300.6 332.57,-300.6 332.57,-264.6 495.62,-264.6 495.62,-300.6"/>
<text xml:space="preserve" text-anchor="middle" x="414.1" y="-278.4" font-family="Helvetica,sans-Serif" font-size="14.00">Spring MVC Controllers</text>
</g>
<!-- Home&#45;&gt;Controller -->
<g id="edge18" class="edge">
<title>Home-&gt;Controller</title>
<path fill="none" stroke="black" d="M406.63,-705.15C405.1,-690.31 405.1,-669.59 405.1,-651.4 405.1,-651.4 405.1,-651.4 405.1,-357.4 405.1,-342.44 405.1,-325.77 405.95,-312.06"/>
<polygon fill="black" stroke="black" points="409.41,-312.68 406.81,-302.4 402.44,-312.06 409.41,-312.68"/>
</g>
<!-- Browse -->
<g id="node4" class="node">
<title>Browse</title>
<polygon fill="lightyellow" stroke="black" points="339.01,-595.4 217.19,-595.4 217.19,-559.4 339.01,-559.4 339.01,-595.4"/>
<text xml:space="preserve" text-anchor="middle" x="278.1" y="-573.2" font-family="Helvetica,sans-Serif" font-size="14.00">Browse Products</text>
</g>
<!-- Login&#45;&gt;Browse -->
<g id="edge3" class="edge">
<title>Login-&gt;Browse</title>
<path fill="none" stroke="black" d="M309.93,-632.21C305.13,-624.1 299.29,-614.24 293.94,-605.18"/>
<polygon fill="black" stroke="black" points="297.04,-603.56 288.94,-596.73 291.02,-607.12 297.04,-603.56"/>
</g>
<!-- Login&#45;&gt;Controller -->
<g id="edge19" class="edge">
<title>Login-&gt;Controller</title>
<path fill="none" stroke="black" d="M340.03,-631.91C352.84,-618.66 367.1,-599.24 367.1,-578.4 367.1,-578.4 367.1,-578.4 367.1,-357.4 367.1,-339.63 376.91,-322.69 387.57,-309.53"/>
<polygon fill="black" stroke="black" points="390.04,-312.03 393.98,-302.2 384.77,-307.42 390.04,-312.03"/>
</g>
<!-- ProductDetails -->
<g id="node5" class="node">
<title>ProductDetails</title>
<polygon fill="lightyellow" stroke="black" points="333.56,-522.4 222.63,-522.4 222.63,-486.4 333.56,-486.4 333.56,-522.4"/>
<text xml:space="preserve" text-anchor="middle" x="278.1" y="-500.2" font-family="Helvetica,sans-Serif" font-size="14.00">Product Details</text>
</g>
<!-- Browse&#45;&gt;ProductDetails -->
<g id="edge4" class="edge">
<title>Browse-&gt;ProductDetails</title>
<path fill="none" stroke="black" d="M278.1,-559.21C278.1,-551.63 278.1,-542.5 278.1,-533.94"/>
<polygon fill="black" stroke="black" points="281.6,-533.94 278.1,-523.94 274.6,-533.94 281.6,-533.94"/>
</g>
<!-- Cart -->
<g id="node6" class="node">
<title>Cart</title>
<polygon fill="lightyellow" stroke="black" points="321.5,-449.4 234.69,-449.4 234.69,-413.4 321.5,-413.4 321.5,-449.4"/>
<text xml:space="preserve" text-anchor="middle" x="278.1" y="-427.2" font-family="Helvetica,sans-Serif" font-size="14.00">Add to Cart</text>
</g>
<!-- ProductDetails&#45;&gt;Cart -->
<g id="edge5" class="edge">
<title>ProductDetails-&gt;Cart</title>
<path fill="none" stroke="black" d="M278.1,-486.21C278.1,-478.63 278.1,-469.5 278.1,-460.94"/>
<polygon fill="black" stroke="black" points="281.6,-460.94 278.1,-450.94 274.6,-460.94 281.6,-460.94"/>
</g>
<!-- Checkout -->
<g id="node7" class="node">
<title>Checkout</title>
<polygon fill="lightyellow" stroke="black" points="315.67,-376.4 240.52,-376.4 240.52,-340.4 315.67,-340.4 315.67,-376.4"/>
<text xml:space="preserve" text-anchor="middle" x="278.1" y="-354.2" font-family="Helvetica,sans-Serif" font-size="14.00">Checkout</text>
</g>
<!-- Cart&#45;&gt;Checkout -->
<g id="edge6" class="edge">
<title>Cart-&gt;Checkout</title>
<path fill="none" stroke="black" d="M278.1,-413.21C278.1,-405.63 278.1,-396.5 278.1,-387.94"/>
<polygon fill="black" stroke="black" points="281.6,-387.94 278.1,-377.94 274.6,-387.94 281.6,-387.94"/>
</g>
<!-- Payment -->
<g id="node8" class="node">
<title>Payment</title>
<polygon fill="lightgreen" stroke="black" points="294.11,-303.4 166.09,-303.4 166.09,-261.8 294.11,-261.8 294.11,-303.4"/>
<text xml:space="preserve" text-anchor="middle" x="230.1" y="-286.8" font-family="Helvetica,sans-Serif" font-size="14.00">Payment</text>
<text xml:space="preserve" text-anchor="middle" x="230.1" y="-270" font-family="Helvetica,sans-Serif" font-size="14.00">(COD / Razorpay)</text>
</g>
<!-- Checkout&#45;&gt;Payment -->
<g id="edge7" class="edge">
<title>Checkout-&gt;Payment</title>
<path fill="none" stroke="black" d="M266.72,-339.91C261.55,-331.96 255.29,-322.33 249.41,-313.3"/>
<polygon fill="black" stroke="black" points="252.47,-311.58 244.08,-305.11 246.6,-315.4 252.47,-311.58"/>
</g>
<!-- Checkout&#45;&gt;Controller -->
<g id="edge20" class="edge">
<title>Checkout-&gt;Controller</title>
<path fill="none" stroke="black" d="M310.33,-339.91C328.79,-329.89 352.17,-317.21 372.06,-306.41"/>
<polygon fill="black" stroke="black" points="373.65,-309.53 380.77,-301.69 370.31,-303.38 373.65,-309.53"/>
</g>
<!-- OrderPlaced -->
<g id="node9" class="node">
<title>OrderPlaced</title>
<polygon fill="lightgreen" stroke="black" points="261.79,-114.6 68.4,-114.6 68.4,-73 261.79,-73 261.79,-114.6"/>
<text xml:space="preserve" text-anchor="middle" x="165.1" y="-98" font-family="Helvetica,sans-Serif" font-size="14.00">Order Placed</text>
<text xml:space="preserve" text-anchor="middle" x="165.1" y="-81.2" font-family="Helvetica,sans-Serif" font-size="14.00">Status: ORDER_RECEIVED</text>
</g>
<!-- Payment&#45;&gt;OrderPlaced -->
<g id="edge10" class="edge">
<title>Payment-&gt;OrderPlaced</title>
<path fill="none" stroke="black" d="M233.08,-261.77C236.6,-231.72 239.32,-173.79 216.1,-132.6 214.14,-129.13 211.73,-125.9 209.02,-122.89"/>
<polygon fill="black" stroke="black" points="211.5,-120.42 201.84,-116.07 206.68,-125.49 211.5,-120.42"/>
<text xml:space="preserve" text-anchor="middle" x="288.33" y="-184" font-family="Helvetica,sans-Serif" font-size="14.00">Cash on Delivery</text>
</g>
<!-- Razorpay -->
<g id="node22" class="node">
<title>Razorpay</title>
<polygon fill="lightgreen" stroke="black" points="194.19,-206.2 0,-206.2 0,-170.2 194.19,-170.2 194.19,-206.2"/>
<text xml:space="preserve" text-anchor="middle" x="97.1" y="-184" font-family="Helvetica,sans-Serif" font-size="14.00">Razorpay Payment Gateway</text>
</g>
<!-- Payment&#45;&gt;Razorpay -->
<g id="edge8" class="edge">
<title>Payment-&gt;Razorpay</title>
<path fill="none" stroke="black" d="M165.59,-271.05C147.86,-265.45 129.85,-256.89 116.49,-243.8 109.34,-236.79 104.82,-226.98 101.96,-217.6"/>
<polygon fill="black" stroke="black" points="105.4,-216.94 99.6,-208.07 98.61,-218.62 105.4,-216.94"/>
<text xml:space="preserve" text-anchor="middle" x="166.29" y="-231.2" font-family="Helvetica,sans-Serif" font-size="14.00">Online Payment</text>
</g>
<!-- TrackOrder -->
<g id="node10" class="node">
<title>TrackOrder</title>
<polygon fill="lightyellow" stroke="black" points="210.43,-36 119.76,-36 119.76,0 210.43,0 210.43,-36"/>
<text xml:space="preserve" text-anchor="middle" x="165.1" y="-13.8" font-family="Helvetica,sans-Serif" font-size="14.00">Track Order</text>
</g>
<!-- OrderPlaced&#45;&gt;TrackOrder -->
<g id="edge11" class="edge">
<title>OrderPlaced-&gt;TrackOrder</title>
<path fill="none" stroke="black" d="M165.1,-72.63C165.1,-64.86 165.1,-55.83 165.1,-47.42"/>
<polygon fill="black" stroke="black" points="168.6,-47.65 165.1,-37.65 161.6,-47.65 168.6,-47.65"/>
</g>
<!-- Admin -->
<g id="node11" class="node">
<title>Admin</title>
<polygon fill="lightcoral" stroke="black" points="632.94,-376.4 577.25,-376.4 577.25,-340.4 632.94,-340.4 632.94,-376.4"/>
<text xml:space="preserve" text-anchor="middle" x="605.1" y="-354.2" font-family="Helvetica,sans-Serif" font-size="14.00">Admin</text>
</g>
<!-- AdminLogin -->
<g id="node12" class="node">
<title>AdminLogin</title>
<polygon fill="lightcoral" stroke="black" points="652.01,-300.6 558.18,-300.6 558.18,-264.6 652.01,-264.6 652.01,-300.6"/>
<text xml:space="preserve" text-anchor="middle" x="605.1" y="-278.4" font-family="Helvetica,sans-Serif" font-size="14.00">Admin Login</text>
</g>
<!-- Admin&#45;&gt;AdminLogin -->
<g id="edge12" class="edge">
<title>Admin-&gt;AdminLogin</title>
<path fill="none" stroke="black" d="M605.1,-339.91C605.1,-331.64 605.1,-321.55 605.1,-312.2"/>
<polygon fill="black" stroke="black" points="608.6,-312.48 605.1,-302.48 601.6,-312.48 608.6,-312.48"/>
</g>
<!-- Dashboard -->
<g id="node13" class="node">
<title>Dashboard</title>
<polygon fill="lightcoral" stroke="black" points="669.13,-206.2 541.07,-206.2 541.07,-170.2 669.13,-170.2 669.13,-206.2"/>
<text xml:space="preserve" text-anchor="middle" x="605.1" y="-184" font-family="Helvetica,sans-Serif" font-size="14.00">Admin Dashboard</text>
</g>
<!-- AdminLogin&#45;&gt;Dashboard -->
<g id="edge13" class="edge">
<title>AdminLogin-&gt;Dashboard</title>
<path fill="none" stroke="black" d="M605.1,-264.22C605.1,-251.19 605.1,-233.05 605.1,-217.88"/>
<polygon fill="black" stroke="black" points="608.6,-218.02 605.1,-208.02 601.6,-218.02 608.6,-218.02"/>
</g>
<!-- ProductMgmt -->
<g id="node14" class="node">
<title>ProductMgmt</title>
<polygon fill="lightcoral" stroke="black" points="866.99,-111.8 643.21,-111.8 643.21,-75.8 866.99,-75.8 866.99,-111.8"/>
<text xml:space="preserve" text-anchor="middle" x="755.1" y="-89.6" font-family="Helvetica,sans-Serif" font-size="14.00">Product &amp; Category Management</text>
</g>
<!-- Dashboard&#45;&gt;ProductMgmt -->
<g id="edge14" class="edge">
<title>Dashboard-&gt;ProductMgmt</title>
<path fill="none" stroke="black" d="M633.31,-169.82C657.01,-155.22 691.1,-134.22 717.19,-118.15"/>
<polygon fill="black" stroke="black" points="718.79,-121.28 725.47,-113.05 715.12,-115.32 718.79,-121.28"/>
</g>
<!-- OrderMgmt -->
<g id="node15" class="node">
<title>OrderMgmt</title>
<polygon fill="lightcoral" stroke="black" points="1022.79,-114.6 885.4,-114.6 885.4,-73 1022.79,-73 1022.79,-114.6"/>
<text xml:space="preserve" text-anchor="middle" x="954.1" y="-98" font-family="Helvetica,sans-Serif" font-size="14.00">Order Management</text>
<text xml:space="preserve" text-anchor="middle" x="954.1" y="-81.2" font-family="Helvetica,sans-Serif" font-size="14.00">(Update Status)</text>
</g>
<!-- Dashboard&#45;&gt;OrderMgmt -->
<g id="edge15" class="edge">
<title>Dashboard-&gt;OrderMgmt</title>
<path fill="none" stroke="black" d="M669.51,-170.14C727.21,-154.87 812.03,-132.41 874.06,-115.99"/>
<polygon fill="black" stroke="black" points="874.74,-119.43 883.51,-113.49 872.95,-112.66 874.74,-119.43"/>
</g>
<!-- RefundMgmt -->
<g id="node16" class="node">
<title>RefundMgmt</title>
<polygon fill="lightcoral" stroke="black" points="1187.47,-111.8 1040.72,-111.8 1040.72,-75.8 1187.47,-75.8 1187.47,-111.8"/>
<text xml:space="preserve" text-anchor="middle" x="1114.1" y="-89.6" font-family="Helvetica,sans-Serif" font-size="14.00">Refund Management</text>
</g>
<!-- Dashboard&#45;&gt;RefundMgmt -->
<g id="edge16" class="edge">
<title>Dashboard-&gt;RefundMgmt</title>
<path fill="none" stroke="black" d="M669.37,-177.68C750.95,-165.28 896.2,-142.16 1032.04,-114.53"/>
<polygon fill="black" stroke="black" points="1032.47,-118.01 1041.57,-112.57 1031.07,-111.15 1032.47,-118.01"/>
</g>
<!-- SalesReport -->
<g id="node17" class="node">
<title>SalesReport</title>
<polygon fill="lightcoral" stroke="black" points="625.34,-114.6 456.85,-114.6 456.85,-73 625.34,-73 625.34,-114.6"/>
<text xml:space="preserve" text-anchor="middle" x="541.1" y="-98" font-family="Helvetica,sans-Serif" font-size="14.00">Sales Reports</text>
<text xml:space="preserve" text-anchor="middle" x="541.1" y="-81.2" font-family="Helvetica,sans-Serif" font-size="14.00">(Daily / Monthly / Yearly)</text>
</g>
<!-- Dashboard&#45;&gt;SalesReport -->
<g id="edge17" class="edge">
<title>Dashboard-&gt;SalesReport</title>
<path fill="none" stroke="black" d="M593.06,-169.82C584.21,-157.04 571.96,-139.36 561.58,-124.38"/>
<polygon fill="black" stroke="black" points="564.52,-122.47 555.95,-116.24 558.76,-126.46 564.52,-122.47"/>
</g>
<!-- Dashboard&#45;&gt;Controller -->
<g id="edge21" class="edge">
<title>Dashboard-&gt;Controller</title>
<path fill="none" stroke="black" d="M574.43,-206.66C545.14,-221.61 500.63,-243.21 465.88,-259.39"/>
<polygon fill="black" stroke="black" points="464.41,-256.21 456.81,-263.58 467.35,-262.56 464.41,-256.21"/>
</g>
<!-- Controller&#45;&gt;Home -->
<g id="edge28" class="edge">
<title>Controller-&gt;Home</title>
<path fill="none" stroke="black" d="M421.25,-300.9C423.1,-315.85 423.1,-338.05 423.1,-357.4 423.1,-651.4 423.1,-651.4 423.1,-651.4 423.1,-665.33 423.1,-680.74 422.41,-693.86"/>
<polygon fill="black" stroke="black" points="418.93,-693.41 421.67,-703.64 425.91,-693.93 418.93,-693.41"/>
</g>
<!-- Controller&#45;&gt;Dashboard -->
<g id="edge29" class="edge">
<title>Controller-&gt;Dashboard</title>
<path fill="none" stroke="black" d="M444.61,-264.22C473.97,-249.23 518.73,-227.51 553.58,-211.29"/>
<polygon fill="black" stroke="black" points="554.61,-214.67 562.21,-207.29 551.67,-208.32 554.61,-214.67"/>
</g>
<!-- Service -->
<g id="node19" class="node">
<title>Service</title>
<polygon fill="lightblue" stroke="black" points="473.84,-209 354.35,-209 354.35,-167.4 473.84,-167.4 473.84,-209"/>
<text xml:space="preserve" text-anchor="middle" x="414.1" y="-192.4" font-family="Helvetica,sans-Serif" font-size="14.00">Service Layer</text>
<text xml:space="preserve" text-anchor="middle" x="414.1" y="-175.6" font-family="Helvetica,sans-Serif" font-size="14.00">(Business Logic)</text>
</g>
<!-- Controller&#45;&gt;Service -->
<g id="edge22" class="edge">
<title>Controller-&gt;Service</title>
<path fill="none" stroke="black" d="M408.68,-264.22C407.35,-251.93 407.02,-235.1 407.67,-220.5"/>
<polygon fill="black" stroke="black" points="411.14,-221.12 408.3,-210.91 404.15,-220.65 411.14,-221.12"/>
</g>
<!-- Service&#45;&gt;Controller -->
<g id="edge27" class="edge">
<title>Service-&gt;Controller</title>
<path fill="none" stroke="black" d="M419.79,-209.4C420.96,-222.2 421.16,-238.95 420.39,-253.1"/>
<polygon fill="black" stroke="black" points="416.92,-252.47 419.63,-262.71 423.9,-253.02 416.92,-252.47"/>
</g>
<!-- Repository -->
<g id="node20" class="node">
<title>Repository</title>
<polygon fill="lightblue" stroke="black" points="438.78,-114.6 315.41,-114.6 315.41,-73 438.78,-73 438.78,-114.6"/>
<text xml:space="preserve" text-anchor="middle" x="377.1" y="-98" font-family="Helvetica,sans-Serif" font-size="14.00">Repository Layer</text>
<text xml:space="preserve" text-anchor="middle" x="377.1" y="-81.2" font-family="Helvetica,sans-Serif" font-size="14.00">(JPA / Hibernate)</text>
</g>
<!-- Service&#45;&gt;Repository -->
<g id="edge23" class="edge">
<title>Service-&gt;Repository</title>
<path fill="none" stroke="black" d="M400.39,-167.15C394.42,-155.04 387.9,-139.36 383.06,-125.69"/>
<polygon fill="black" stroke="black" points="386.39,-124.63 379.91,-116.25 379.75,-126.84 386.39,-124.63"/>
</g>
<!-- Repository&#45;&gt;Service -->
<g id="edge26" class="edge">
<title>Repository-&gt;Service</title>
<path fill="none" stroke="black" d="M390.78,-114.81C396.75,-126.91 403.27,-142.59 408.12,-156.26"/>
<polygon fill="black" stroke="black" points="404.79,-157.33 411.27,-165.71 411.43,-155.12 404.79,-157.33"/>
</g>
<!-- Database -->
<g id="node21" class="node">
<title>Database</title>
<polygon fill="lightgray" stroke="black" points="440.34,-36 313.85,-36 313.85,0 440.34,0 440.34,-36"/>
<text xml:space="preserve" text-anchor="middle" x="377.1" y="-13.8" font-family="Helvetica,sans-Serif" font-size="14.00">MySQL Database</text>
</g>
<!-- Repository&#45;&gt;Database -->
<g id="edge24" class="edge">
<title>Repository-&gt;Database</title>
<path fill="none" stroke="black" d="M371.01,-72.63C370.35,-64.86 370.18,-55.83 370.51,-47.42"/>
<polygon fill="black" stroke="black" points="373.98,-47.87 371.19,-37.65 367,-47.38 373.98,-47.87"/>
</g>
<!-- Database&#45;&gt;Repository -->
<g id="edge25" class="edge">
<title>Database-&gt;Repository</title>
<path fill="none" stroke="black" d="M382.9,-36.14C383.7,-43.63 383.99,-52.67 383.78,-61.3"/>
<polygon fill="black" stroke="black" points="380.29,-60.95 383.27,-71.12 387.29,-61.32 380.29,-60.95"/>
</g>
<!-- Razorpay&#45;&gt;OrderPlaced -->
<g id="edge9" class="edge">
<title>Razorpay-&gt;OrderPlaced</title>
<path fill="none" stroke="black" d="M95.62,-170.16C95.45,-158.69 96.92,-143.69 104.05,-132.6 106.48,-128.82 109.44,-125.35 112.73,-122.18"/>
<polygon fill="black" stroke="black" points="114.86,-124.97 120.32,-115.89 110.39,-119.58 114.86,-124.97"/>
<text xml:space="preserve" text-anchor="middle" x="160.07" y="-136.8" font-family="Helvetica,sans-Serif" font-size="14.00">Payment Success</text>
</g>
</g>
</svg>